<?xml version="1.0" ?><!DOCTYPE svg  PUBLIC '-//W3C//DTD SVG 1.1//EN'  'http://www.w3.org/Graphics/SVG/1.1/DTD/svg11.dtd'><svg height="100%" style="fill-rule:evenodd;clip-rule:evenodd;stroke-linejoin:round;stroke-miterlimit:2;" version="1.1" viewBox="0 0 512 512" width="100%" xml:space="preserve" xmlns="http://www.w3.org/2000/svg" xmlns:serif="http://www.serif.com/" xmlns:xlink="http://www.w3.org/1999/xlink"><g transform="matrix(2.04082,0,0,2.04082,0.897959,0.897959)"><g transform="matrix(1.46312,0,0,1.46312,-57.4343,-58.3674)"><path d="M199.363,72.831C199.363,72.831 207.74,81.161 208.414,81.882C207.471,89.879 202.125,96.303 195.239,97.906C195.236,98.031 195.233,98.156 195.228,98.282C195.243,98.973 195.25,99.666 195.25,100.361C195.25,155.752 150.28,200.722 94.889,200.722C78.24,200.722 65.973,195.37 57.289,188.316C54.505,186.054 41.718,173.282 41.718,173.282C41.718,173.282 59.928,181.284 64.889,180.972C77.675,180.171 89.545,176.815 100.075,171.304C89.522,170.505 79.948,166.172 72.538,159.487C68.805,156.12 58.079,145.066 55.594,140.657C60.815,142.965 74.082,151.428 80.097,151.655C65.181,144.927 54.342,130.739 52.346,113.858C56.052,115.869 60.054,117.402 64.269,118.375C56.942,109.77 92.857,105.322 92.857,105.322L92.87,105.326C92.971,105.356 93.071,105.386 93.172,105.416L93.179,105.419L93.234,105.435L93.441,105.496L93.474,105.506L93.502,105.514L93.582,105.537L93.72,105.577L93.779,105.593L93.826,105.607L93.898,105.627L93.999,105.656L94.086,105.68L94.151,105.699L94.207,105.714L94.279,105.734L94.398,105.767L94.476,105.788L94.514,105.798L94.559,105.811L94.726,105.856L94.803,105.876L94.82,105.881C94.922,105.908 95.024,105.935 95.126,105.961L95.404,106.033L95.434,106.04L95.458,106.046L95.539,106.067L95.687,106.104L95.743,106.118L95.787,106.129L95.862,106.147L95.971,106.174L96.054,106.194L96.117,106.209L96.177,106.224L96.255,106.242L96.37,106.27L96.447,106.288L96.489,106.298L96.539,106.31L96.699,106.346L96.779,106.365L96.8,106.37C96.903,106.393 97.007,106.416 97.11,106.44L97.397,106.503L97.422,106.508L97.444,106.513L97.524,106.53L97.684,106.564L97.735,106.575L97.777,106.584L97.855,106.6L97.971,106.624L98.051,106.64L98.112,106.653L98.175,106.666L98.259,106.683L98.37,106.705L98.447,106.72L98.492,106.729L98.548,106.74L98.7,106.77L98.783,106.786L98.807,106.79L98.837,106.796L99.123,106.85C99.228,106.869 99.333,106.889 99.438,106.908L99.456,106.911L99.535,106.925L99.708,106.955L99.756,106.964L99.795,106.971L99.875,106.984L99.999,107.006L100.075,107.018L100.133,107.028L100.2,107.039L100.291,107.054L100.398,107.072L100.473,107.084L100.522,107.092L100.583,107.102L100.729,107.125L100.813,107.138L100.842,107.142L100.876,107.148L101.099,107.181L101.154,107.19L101.161,107.191C101.268,107.207 101.374,107.222 101.481,107.238L101.496,107.24L101.571,107.25L101.758,107.277L101.802,107.283L101.838,107.288L101.921,107.299L102.053,107.317L102.125,107.326L102.181,107.334L102.252,107.343L102.348,107.356L102.451,107.368L102.525,107.378L102.577,107.384L102.644,107.393L102.785,107.41L102.869,107.42L102.901,107.424L102.941,107.428L103.146,107.452L103.214,107.46L103.225,107.461C103.333,107.473 103.44,107.485 103.548,107.497L103.56,107.498L103.628,107.505L103.833,107.527L103.873,107.531L103.906,107.534L103.99,107.542L104.131,107.556L104.199,107.563L104.253,107.568L104.327,107.575L104.43,107.585L104.529,107.594L104.6,107.6L104.657,107.605L104.73,107.612L104.864,107.623L104.948,107.63L104.985,107.633L105.029,107.637L105.221,107.652L105.297,107.658L105.312,107.659C105.421,107.668 105.53,107.676 105.639,107.684L105.647,107.684L105.704,107.688L105.931,107.704L105.967,107.706L105.997,107.708L106.083,107.713L106.233,107.723L106.297,107.727L106.347,107.73L106.425,107.734L106.44,107.735L106.44,107.735C106.715,107.751 106.99,107.765 107.266,107.777L107.325,107.78L107.699,107.795L107.731,107.796L108.139,107.809L108.21,107.811L108.537,107.819L108.614,107.821L108.998,107.828L109.074,107.829L109.392,107.832L109.443,107.833L109.485,107.833L109.885,107.835L110.223,107.834L110.349,107.833L110.375,107.832L110.562,107.831L110.72,107.829L110.766,107.828L110.9,107.826L111.078,107.823L111.142,107.821L111.239,107.819L111.43,107.815L111.513,107.812L111.579,107.811L111.78,107.805L111.882,107.801L111.921,107.8L112.056,107.795L112.083,107.794L112.128,107.793L112.226,107.789L112.392,107.782L112.448,107.78L112.477,107.778L112.604,107.773L112.727,107.767L112.813,107.763L112.828,107.762L112.961,107.755L112.978,107.754L113.062,107.75L113.177,107.744L113.185,107.743L113.311,107.736L113.342,107.734L113.396,107.731L113.519,107.724L113.658,107.715L113.704,107.712L113.729,107.711L113.865,107.702L113.904,107.699L114.004,107.693L114.203,107.678L114.269,107.673L114.349,107.667L114.538,107.653L114.634,107.645L114.696,107.64L114.871,107.626L115.004,107.614L115.047,107.611L115.202,107.597L115.386,107.58L115.411,107.578L115.533,107.567L115.862,107.534L115.879,107.532L116.204,107.499L116.316,107.486L116.339,107.484L116.52,107.464L116.675,107.446L116.719,107.441L116.849,107.426L117.022,107.405L117.085,107.397L117.178,107.386L117.364,107.363L117.445,107.352L117.508,107.344L117.703,107.319L117.803,107.305L117.84,107.3L117.972,107.282L117.999,107.278L118.04,107.273L118.14,107.259L118.298,107.236L118.353,107.228L118.379,107.225L118.504,107.206L118.622,107.189L118.706,107.176L118.719,107.174L118.849,107.154L118.866,107.152L118.945,107.14L119.188,107.101L119.218,107.097L119.269,107.089L119.393,107.068L119.524,107.047L119.569,107.039L119.592,107.036L119.726,107.013L119.763,107.007L119.857,106.991L120.053,106.957L120.116,106.946L120.192,106.932L120.376,106.899L120.47,106.882L120.527,106.872L120.698,106.84L120.828,106.816L120.866,106.809L121.019,106.78L121.198,106.745L121.218,106.741L121.338,106.717L121.654,106.654L121.693,106.646L121.984,106.586L122.098,106.561L122.289,106.521L122.443,106.487L122.483,106.478L122.606,106.451L122.776,106.413L122.836,106.4L122.922,106.38L123.105,106.338L123.183,106.32L123.24,106.307L123.432,106.262L123.528,106.239L123.558,106.232L123.692,106.2L123.718,106.193L123.754,106.185L124.006,106.123L124.058,106.11L124.08,106.105L124.318,106.045L124.399,106.024L124.407,106.022L124.538,105.988L124.552,105.985L124.625,105.966L124.863,105.904L124.891,105.896L124.936,105.884L125.077,105.847L125.186,105.817L125.228,105.806L125.246,105.801L125.384,105.763L125.416,105.755L125.502,105.731L125.697,105.677L125.755,105.66L125.823,105.641L125.921,105.613C125.319,102.829 125,99.928 125,96.947C125,96.155 125.022,95.369 125.067,94.59L125.075,94.444L125.091,94.193L125.102,94.046L125.113,93.891L125.123,93.749L125.144,93.497L125.156,93.354L125.17,93.197L125.183,93.057L125.207,92.805L125.222,92.665L125.239,92.506L125.253,92.369L125.282,92.117L125.299,91.981L125.319,91.818L125.335,91.685L125.369,91.433L125.387,91.3L125.41,91.135L125.429,91.005L125.466,90.752L125.486,90.623L125.513,90.456L125.533,90.329L125.575,90.076L125.597,89.95L125.626,89.78L125.648,89.656L125.695,89.403L125.718,89.281L125.751,89.109L125.775,88.988L125.825,88.735L125.85,88.617L125.886,88.443L125.912,88.325L125.967,88.072L125.993,87.957L126.033,87.781L126.059,87.666L126.119,87.413L126.146,87.301L126.19,87.123L126.217,87.011L126.282,86.758L126.31,86.65L126.357,86.47L126.386,86.361L126.455,86.108L126.484,86.004L126.535,85.822L126.565,85.715L126.638,85.463L126.668,85.362L126.723,85.179L126.755,85.075L126.832,84.823L126.863,84.726L126.922,84.541L126.954,84.439L127.036,84.188L127.067,84.095L127.13,83.907L127.164,83.809L127.25,83.558L127.282,83.469L127.349,83.28L127.383,83.184L127.474,82.934L127.506,82.848L127.577,82.657L127.612,82.564L127.708,82.314L127.74,82.232L127.816,82.04L127.851,81.949L127.952,81.701L127.984,81.622L128.064,81.428L128.1,81.34L128.205,81.092L128.237,81.018L128.321,80.823L128.358,80.737L128.468,80.49L128.499,80.419L128.588,80.222L128.626,80.14L128.74,79.893L128.771,79.827L128.865,79.628L128.903,79.548L129.021,79.303L129.052,79.24L129.151,79.04L129.189,78.963L129.312,78.718L129.342,78.66L129.446,78.458L129.485,78.383L129.612,78.14L129.641,78.085L129.75,77.882L129.789,77.81L129.921,77.568L129.949,77.517L130.063,77.313L130.102,77.243L130.239,77.002L130.265,76.956L130.385,76.75L130.424,76.682L130.565,76.443L130.591,76.401L130.715,76.193L130.755,76.128L130.901,75.89L130.924,75.852L131.055,75.643L131.094,75.581L131.245,75.344L131.266,75.311L131.403,75.1L131.442,75.04L131.597,74.805L131.617,74.776L131.759,74.564L131.798,74.507L131.958,74.273L131.975,74.248L132.124,74.035L132.162,73.98L132.327,73.748L132.342,73.728L132.497,73.513L132.535,73.461L132.704,73.23L132.716,73.214L132.878,72.998L132.915,72.948L133.09,72.719L133.098,72.708L133.267,72.491L133.304,72.443L133.483,72.216L133.488,72.21L133.664,71.991L133.7,71.946L133.884,71.72L134.069,71.499L134.104,71.456L134.293,71.233L134.481,71.014L134.516,70.974L134.708,70.754L134.901,70.537L134.935,70.499L135.132,70.282L135.329,70.068L135.362,70.033L135.563,69.819L135.764,69.607L135.796,69.574L136.001,69.363L136.207,69.154L136.237,69.124L136.446,68.916L136.656,68.71L136.686,68.681L136.898,68.477L137.113,68.274L137.141,68.247L137.358,68.046L137.577,67.846L137.603,67.822L137.824,67.624L138.047,67.427L138.072,67.405L138.297,67.21L138.525,67.016L138.548,66.997L138.777,66.805L139.009,66.615L139.03,66.597L139.263,66.409L139.499,66.222L139.519,66.207L139.756,66.022L139.996,65.839L140.014,65.825L140.255,65.644L140.5,65.464L140.516,65.452L140.761,65.275L141.009,65.099L141.023,65.089L141.273,64.916L141.525,64.743L141.537,64.735L141.79,64.566L142.047,64.397L142.057,64.391L142.314,64.225L142.575,64.06L142.582,64.056L142.844,63.894L143.108,63.733L143.114,63.73L143.379,63.573L143.648,63.416L143.651,63.415L143.92,63.261L144.193,63.109C144.466,62.958 144.742,62.811 145.019,62.668L145.019,62.668C149.596,60.305 175.537,70.749 180.943,70.749C191.938,70.749 194.694,53.762 194.694,53.762L203.627,62.704C203.627,62.704 204.063,65.634 204.063,67.167C204.063,70.439 203.377,72.777 202.159,75.514" style="fill:white;stroke:black;stroke-width:3.43px;stroke-linecap:round;stroke-miterlimit:1.5;"/></g><g transform="matrix(1.38189,0,0,1.38189,-18.4667,-8.39573)"><path d="M168.932,57.975L178.508,67.804" style="fill:none;stroke:black;stroke-width:3.63px;stroke-linecap:round;stroke-linejoin:miter;stroke-miterlimit:5;"/></g><g transform="matrix(1.38189,0,0,1.38189,-18.4667,10.3611)"><path d="M168.563,57.593L177.988,67.293" style="fill:none;stroke:black;stroke-width:3.63px;stroke-linecap:round;stroke-linejoin:miter;stroke-miterlimit:5;"/></g><g transform="matrix(1.38189,0,0,1.38189,-22.3911,26.3104)"><path d="M169.292,58.364L178.829,68.158" style="fill:none;stroke:black;stroke-width:3.63px;stroke-linecap:round;stroke-linejoin:miter;stroke-miterlimit:5;"/></g><g transform="matrix(1.38189,0,0,1.38189,-26.1919,42.37)"><path d="M168.904,57.975L178.425,67.742" style="fill:none;stroke:black;stroke-width:3.63px;stroke-linecap:round;stroke-linejoin:miter;stroke-miterlimit:5;"/></g><g transform="matrix(1.38189,0,0,1.38189,-32.5663,56.3461)"><path d="M169.306,58.358L178.766,68.206" style="fill:none;stroke:black;stroke-width:3.63px;stroke-linecap:round;stroke-linejoin:miter;stroke-miterlimit:5;"/></g><g transform="matrix(1.38189,0,0,1.38189,-39.0688,69.8409)"><path d="M169.018,58.054L178.505,67.8" style="fill:none;stroke:black;stroke-width:3.63px;stroke-linecap:round;stroke-linejoin:miter;stroke-miterlimit:5;"/></g><g transform="matrix(1.38189,0,0,1.38189,-47.284,80.6298)"><path d="M169.492,58.549L178.975,68.27" style="fill:none;stroke:black;stroke-width:3.63px;stroke-linecap:round;stroke-linejoin:miter;stroke-miterlimit:5;"/></g><g transform="matrix(1.38189,0,0,1.38189,-54.3956,91.5422)"><path d="M168.87,57.942L178.326,67.621" style="fill:none;stroke:black;stroke-width:3.63px;stroke-linecap:round;stroke-linejoin:miter;stroke-miterlimit:5;"/></g><g transform="matrix(1.38189,0,0,1.38189,-64.0808,101.227)"><path d="M169.037,58.081L178.494,67.789" style="fill:none;stroke:black;stroke-width:3.63px;stroke-linecap:round;stroke-linejoin:miter;stroke-miterlimit:5;"/></g><g transform="matrix(1.38189,0,0,1.38189,-73.8897,111.036)"><path d="M168.712,57.746L177.954,67.263" style="fill:none;stroke:black;stroke-width:3.63px;stroke-linecap:round;stroke-linejoin:miter;stroke-miterlimit:5;"/></g><g transform="matrix(1.38189,0,0,1.38189,-85.4157,117.658)"><path d="M169.418,58.475L178.657,67.947" style="fill:none;stroke:black;stroke-width:3.63px;stroke-linecap:round;stroke-linejoin:miter;stroke-miterlimit:5;"/></g><g transform="matrix(1.38189,0,0,1.38189,-98.0542,124.408)"><path d="M169.512,58.587C174.187,63.336 175.808,65.028 178.776,68.071" style="fill:none;stroke:black;stroke-width:3.63px;stroke-linecap:round;stroke-linejoin:miter;stroke-miterlimit:5;"/></g><g transform="matrix(1.38189,0,0,1.38189,-110.56,130.906)"><path d="M169.527,58.569L178.342,67.657" style="fill:none;stroke:black;stroke-width:3.63px;stroke-linecap:round;stroke-linejoin:miter;stroke-miterlimit:5;"/></g><g transform="matrix(1.38189,0,0,1.38189,-123.556,135.196)"><path d="M169.338,58.384L178.712,68.031" style="fill:none;stroke:black;stroke-width:3.63px;stroke-linecap:round;stroke-linejoin:miter;stroke-miterlimit:5;"/></g><g transform="matrix(1.38189,0,0,1.38189,-136.309,138.997)"><path d="M169.211,58.283L178.347,67.642" style="fill:none;stroke:black;stroke-width:3.63px;stroke-linecap:round;stroke-linejoin:miter;stroke-miterlimit:5;"/></g><g transform="matrix(1.38189,0,0,1.38189,-152.003,140.591)"><path d="M169.416,58.488L178.795,68.09" style="fill:none;stroke:black;stroke-width:3.63px;stroke-linecap:round;stroke-linejoin:miter;stroke-miterlimit:5;"/></g><g transform="matrix(1.38189,0,0,1.38189,-166.35,141.694)"><path d="M169.115,58.161L178.448,67.743" style="fill:none;stroke:black;stroke-width:3.63px;stroke-linecap:round;stroke-linejoin:miter;stroke-miterlimit:5;"/></g><g transform="matrix(1.24201,0,0,1.24201,-158.053,148.853)"><path d="M168.879,57.918L179.235,68.531" style="fill:none;stroke:black;stroke-width:4.04px;stroke-linecap:round;stroke-linejoin:miter;stroke-miterlimit:5;"/></g><g transform="matrix(1.21743,0,0,1.21743,-171.784,145.599)"><path d="M168.594,57.666L179.032,68.367" style="fill:none;stroke:black;stroke-width:4.12px;stroke-linecap:round;stroke-linejoin:miter;stroke-miterlimit:5;"/></g><g transform="matrix(0.998214,0,0,0.998214,-116.642,116.917)"><path d="M170,59.072L177.667,66.962" style="fill:none;stroke:black;stroke-width:5.03px;stroke-linecap:round;stroke-linejoin:miter;stroke-miterlimit:5;"/></g><g transform="matrix(1.38189,0,0,1.38189,-9.63786,-13.9138)"><path d="M169.401,58.456L178.853,68.148" style="fill:none;stroke:black;stroke-width:3.63px;stroke-linecap:round;stroke-linejoin:miter;stroke-miterlimit:5;"/></g><g transform="matrix(1.38189,0,0,1.38189,-1.91263,-22.7426)"><path d="M169.003,58.046L178.505,67.8" style="fill:none;stroke:black;stroke-width:3.63px;stroke-linecap:round;stroke-linejoin:miter;stroke-miterlimit:5;"/></g><g transform="matrix(1.38189,0,0,1.38189,-6.32705,-47.0219)"><path d="M169.02,58.092L178.483,67.802" style="fill:none;stroke:black;stroke-width:3.63px;stroke-linecap:round;stroke-linejoin:miter;stroke-miterlimit:5;"/></g><g transform="matrix(0.518196,0,0,0.518196,137.189,14.1232)"><path d="M166.697,55.673L180.357,69.652" style="fill:none;stroke:black;stroke-width:9.68px;stroke-linecap:round;stroke-linejoin:miter;stroke-miterlimit:5;"/></g><g transform="matrix(1.46312,0,0,1.46312,-70.6775,-71.6106)"><path d="M195.239,97.906C195.236,98.031 195.233,98.156 195.228,98.282C195.243,98.973 195.25,99.666 195.25,100.361C195.25,155.752 150.28,200.722 94.889,200.722C72.902,200.722 58.557,191.387 50.015,181.126C54.785,181.848 59.928,181.284 64.889,180.972C77.675,180.171 89.545,176.815 100.075,171.304C84.206,170.103 70.554,160.911 63.137,147.747C68.357,150.055 74.082,151.428 80.097,151.655C65.181,144.927 54.342,130.739 52.346,113.858C56.052,115.869 60.054,117.402 64.269,118.375C56.942,109.77 52.517,98.612 52.517,86.426C52.517,79.837 53.811,73.548 56.158,67.801L56.179,67.89L56.257,68.202L56.337,68.512L56.364,68.612C56.456,68.964 56.553,69.315 56.654,69.665L56.677,69.748L56.724,69.908L56.731,69.932L56.736,69.947L56.767,70.055L56.804,70.176L56.81,70.196L56.817,70.221L56.859,70.362L56.896,70.48C57.001,70.822 57.109,71.163 57.221,71.502L57.247,71.579L57.3,71.738L57.31,71.767L57.316,71.784L57.348,71.882L57.389,72.001L57.398,72.027L57.408,72.056L57.452,72.183L57.483,72.272L57.488,72.287L57.499,72.317C57.616,72.65 57.736,72.981 57.859,73.311L57.886,73.382L57.945,73.538L57.959,73.574L57.965,73.591L57.999,73.679L58.045,73.797L58.057,73.829L58.069,73.86L58.114,73.976L58.149,74.064L58.157,74.084L58.172,74.122L58.231,74.272L58.266,74.358C58.364,74.603 58.464,74.848 58.566,75.091L58.593,75.154L58.658,75.308L58.676,75.35L58.684,75.368L58.717,75.446L58.768,75.563L58.784,75.601L58.798,75.634L58.843,75.738L58.882,75.826L58.893,75.851L58.912,75.894L58.971,76.028L59,76.091L59.004,76.101L59.02,76.138C59.126,76.373 59.233,76.608 59.342,76.842L59.366,76.895L59.438,77.047L59.46,77.094L59.469,77.112L59.502,77.182L59.557,77.297L59.578,77.34L59.594,77.374L59.639,77.468L59.682,77.555L59.696,77.586L59.719,77.632L59.778,77.753L59.809,77.816L59.817,77.831L59.841,77.88C59.985,78.172 60.133,78.463 60.283,78.752L60.31,78.805L60.319,78.822L60.352,78.884L60.411,78.997L60.437,79.046L60.455,79.08L60.5,79.165L60.546,79.251L60.565,79.287L60.591,79.335L60.649,79.444L60.683,79.507L60.694,79.527L60.725,79.583L60.801,79.723L60.84,79.794C60.955,80.004 61.072,80.214 61.191,80.422L61.224,80.481L61.234,80.498L61.265,80.553L61.329,80.663L61.36,80.718L61.38,80.751L61.423,80.827L61.473,80.912L61.497,80.953L61.526,81.003L61.583,81.101L61.621,81.163L61.635,81.188L61.672,81.249L61.745,81.374L61.77,81.415L61.775,81.423L61.807,81.477C61.924,81.671 62.042,81.864 62.161,82.056L62.201,82.121L62.211,82.137L62.241,82.185L62.308,82.293L62.346,82.353L62.367,82.386L62.409,82.454L62.462,82.538L62.491,82.583L62.523,82.633L62.579,82.721L62.619,82.783L62.638,82.813L62.68,82.877L62.751,82.988L62.779,83.029L62.787,83.042L62.831,83.11C62.95,83.292 63.07,83.473 63.191,83.653L63.239,83.725L63.249,83.739L63.277,83.781L63.348,83.886L63.392,83.95L63.414,83.982L63.455,84.043L63.512,84.125L63.547,84.176L63.58,84.224L63.635,84.304L63.679,84.366L63.702,84.4L63.747,84.464L63.817,84.564L63.847,84.606L63.859,84.623L63.913,84.699C64.034,84.87 64.156,85.04 64.279,85.21L64.337,85.289L64.346,85.302L64.372,85.338L64.447,85.439L64.498,85.509L64.521,85.54L64.56,85.593L64.62,85.674L64.661,85.729L64.697,85.776L64.75,85.848L64.796,85.909L64.825,85.947L64.874,86.011L64.942,86.101L64.974,86.144L64.99,86.165L65.051,86.244L65.135,86.354L65.156,86.382L65.219,86.462L65.329,86.605L65.424,86.725L65.492,86.813L65.501,86.824L65.525,86.855L65.603,86.952L65.662,87.028L65.685,87.056L65.723,87.104L65.786,87.182L65.833,87.241L65.87,87.287L65.922,87.352L65.971,87.412L66.005,87.454L66.057,87.517L66.123,87.598L66.158,87.641L66.178,87.666L66.245,87.746L66.325,87.844L66.353,87.877L66.436,87.976L66.529,88.088L66.621,88.196L66.705,88.296L66.734,88.331L66.814,88.424L66.883,88.504L66.906,88.531L66.941,88.573L67.007,88.649L67.062,88.712L67.1,88.756L67.15,88.813L67.202,88.873L67.242,88.918L67.295,88.98L67.36,89.053L67.397,89.095L67.423,89.124L67.493,89.204L67.571,89.291L67.594,89.317L67.605,89.329L67.698,89.433L67.784,89.528L67.864,89.616L67.973,89.736L67.999,89.764L68.079,89.852L68.158,89.938L68.181,89.962L68.214,89.999L68.283,90.073L68.345,90.139L68.384,90.181L68.432,90.232L68.487,90.291L68.533,90.34L68.588,90.398L68.651,90.465L68.691,90.507L68.721,90.539L68.795,90.616L68.871,90.695L68.896,90.722L68.911,90.737L69.011,90.841L69.093,90.925L69.294,91.132L69.316,91.154L69.397,91.235L69.487,91.327L69.509,91.349L69.541,91.381L69.612,91.452L69.682,91.522L69.72,91.561L69.767,91.607L69.824,91.664L69.877,91.716L69.933,91.772L69.994,91.831L70.037,91.874L70.073,91.909L70.149,91.983L70.223,92.055L70.251,92.082L70.27,92.101L70.374,92.2L70.453,92.277L70.466,92.289C70.534,92.355 70.603,92.42 70.672,92.485L70.685,92.498L70.764,92.572L70.869,92.671L70.89,92.69L70.918,92.717L70.991,92.785L71.07,92.859L71.109,92.895L71.153,92.936L71.213,92.991L71.273,93.046L71.33,93.098L71.389,93.152L71.435,93.194L71.476,93.232L71.554,93.303L71.626,93.368L71.657,93.396L71.681,93.417L71.787,93.512L71.865,93.582L71.879,93.595C71.951,93.659 72.023,93.723 72.095,93.786L72.105,93.795L72.179,93.861L72.3,93.967L72.32,93.984L72.346,94.007L72.421,94.072L72.509,94.148L72.547,94.181L72.589,94.217L72.652,94.271L72.718,94.328L72.776,94.377L72.833,94.426L72.882,94.467L72.929,94.508L73.008,94.574L73.078,94.634L73.112,94.661L73.141,94.686L73.248,94.775L73.325,94.84L73.353,94.863L73.573,95.045L73.638,95.098L73.781,95.214L73.799,95.229L73.823,95.248L73.898,95.309L73.997,95.389L74.034,95.418L74.073,95.45L74.139,95.503L74.213,95.562L74.27,95.607L74.325,95.651L74.377,95.692L74.43,95.734L74.51,95.796L74.579,95.85L74.615,95.878L74.649,95.905L74.757,95.989L74.833,96.048L74.853,96.063L74.868,96.075L75.048,96.213L75.089,96.244L75.135,96.28L75.31,96.412L75.326,96.424L75.346,96.44L75.422,96.497L75.532,96.579L75.568,96.606L75.605,96.633L75.673,96.684L75.755,96.745L75.812,96.786L75.864,96.825L75.919,96.866L75.979,96.909L76.058,96.967L76.125,97.016L76.165,97.045L76.204,97.073L76.312,97.151L76.388,97.206L76.41,97.222L76.43,97.236L76.597,97.355L76.651,97.394L76.656,97.397C76.737,97.454 76.817,97.511 76.898,97.568L76.916,97.58L76.991,97.632L77.113,97.717L77.147,97.741L77.182,97.765L77.252,97.814L77.342,97.876L77.398,97.914L77.449,97.949L77.507,97.988L77.573,98.033L77.652,98.086L77.717,98.131L77.759,98.159L77.804,98.189L77.912,98.261L77.987,98.311L78.012,98.328L78.036,98.344L78.196,98.45L78.257,98.491L78.265,98.496C78.348,98.55 78.431,98.605 78.515,98.659L78.529,98.668L78.602,98.715L78.738,98.803L78.771,98.824L78.803,98.844L78.875,98.891L78.974,98.954L79.028,98.988L79.077,99.019L79.138,99.057L79.211,99.103L79.289,99.152L79.352,99.192L79.398,99.22L79.448,99.252L79.555,99.318L79.629,99.364L79.658,99.381L79.686,99.399L79.84,99.493L79.907,99.534L79.918,99.54C80.003,99.592 80.089,99.644 80.175,99.696L80.186,99.702L80.254,99.743L80.407,99.834L80.437,99.852L80.466,99.87L80.54,99.913L80.648,99.977L80.701,100.008L80.747,100.035L80.811,100.072L80.891,100.119L80.968,100.163L81.03,100.199L81.078,100.227L81.134,100.259L81.24,100.319L81.313,100.361L81.345,100.379L81.379,100.399L81.527,100.482L81.598,100.522L81.612,100.53C81.699,100.579 81.787,100.628 81.876,100.677L81.884,100.682L81.943,100.714L82.116,100.81L82.144,100.825L82.171,100.839L82.246,100.88L82.364,100.945L82.415,100.972L82.459,100.996L82.525,101.031L82.612,101.078L82.688,101.118L82.748,101.15L82.8,101.177L82.862,101.21L82.965,101.265L83.038,101.303L83.073,101.321L83.112,101.342L83.255,101.416L83.329,101.454L83.346,101.463C83.436,101.51 83.526,101.556 83.617,101.602L83.866,101.728L83.891,101.741L83.915,101.752L83.991,101.79L84.119,101.855L84.168,101.878L84.209,101.899L84.279,101.933L84.373,101.98L84.447,102.015L84.505,102.044L84.56,102.071L84.628,102.104L84.729,102.153L84.801,102.187L84.84,102.205L84.884,102.227L85.023,102.293L85.099,102.329L85.119,102.338L85.14,102.348L85.398,102.469L85.655,102.588L85.677,102.598L85.697,102.607L85.773,102.642L85.913,102.706L85.959,102.726L85.998,102.744L86.07,102.776L86.173,102.823L86.243,102.854L86.3,102.879L86.358,102.905L86.433,102.938L86.531,102.981L86.602,103.013L86.644,103.031L86.693,103.052L86.829,103.111L86.906,103.144L86.929,103.154L86.955,103.165L87.214,103.276C87.309,103.316 87.404,103.356 87.499,103.396L87.516,103.403L87.591,103.434L87.744,103.497L87.787,103.515L87.823,103.53L87.898,103.56L88.008,103.605L88.076,103.633L88.13,103.655L88.192,103.679L88.273,103.712L88.37,103.75L88.439,103.778L88.484,103.796L88.539,103.817L88.671,103.869L88.749,103.899L88.775,103.91L88.806,103.922L89.005,103.999L89.059,104.019L89.066,104.022C89.163,104.059 89.259,104.096 89.356,104.132L89.371,104.137L89.442,104.164L89.61,104.227L89.649,104.241L89.683,104.254L89.76,104.282L89.879,104.326L89.944,104.35L89.996,104.369L90.062,104.392L90.149,104.424L90.242,104.457L90.31,104.481L90.359,104.499L90.42,104.52L90.547,104.565L90.626,104.593L90.656,104.603L90.691,104.616L90.877,104.68L90.942,104.702L90.952,104.706C91.05,104.739 91.149,104.773 91.248,104.806L91.259,104.81L91.324,104.832L91.509,104.894L91.546,104.905L91.576,104.916L91.655,104.941L91.783,104.984L91.846,105.004L91.895,105.02L91.964,105.042L92.058,105.072L92.148,105.101L92.215,105.122L92.267,105.139L92.334,105.16L92.457,105.198L92.535,105.223L92.569,105.233L92.61,105.246L92.785,105.3L92.857,105.322L92.87,105.326C92.971,105.356 93.071,105.386 93.172,105.416L93.179,105.419L93.234,105.435L93.441,105.496L93.474,105.506L93.502,105.514L93.582,105.537L93.72,105.577L93.779,105.593L93.826,105.607L93.898,105.627L93.999,105.656L94.086,105.68L94.151,105.699L94.207,105.714L94.279,105.734L94.398,105.767L94.476,105.788L94.514,105.798L94.559,105.811L94.726,105.856L94.803,105.876L94.82,105.881C94.922,105.908 95.024,105.935 95.126,105.961L95.404,106.033L95.434,106.04L95.458,106.046L95.539,106.067L95.687,106.104L95.743,106.118L95.787,106.129L95.862,106.147L95.971,106.174L96.054,106.194L96.117,106.209L96.177,106.224L96.255,106.242L96.37,106.27L96.447,106.288L96.489,106.298L96.539,106.31L96.699,106.346L96.779,106.365L96.8,106.37C96.903,106.393 97.007,106.416 97.11,106.44L97.397,106.503L97.422,106.508L97.444,106.513L97.524,106.53L97.684,106.564L97.735,106.575L97.777,106.584L97.855,106.6L97.971,106.624L98.051,106.64L98.112,106.653L98.175,106.666L98.259,106.683L98.37,106.705L98.447,106.72L98.492,106.729L98.548,106.74L98.7,106.77L98.783,106.786L98.807,106.79L98.837,106.796L99.123,106.85C99.228,106.869 99.333,106.889 99.438,106.908L99.456,106.911L99.535,106.925L99.708,106.955L99.756,106.964L99.795,106.971L99.875,106.984L99.999,107.006L100.075,107.018L100.133,107.028L100.2,107.039L100.291,107.054L100.398,107.072L100.473,107.084L100.522,107.092L100.583,107.102L100.729,107.125L100.813,107.138L100.842,107.142L100.876,107.148L101.099,107.181L101.154,107.19L101.161,107.191C101.268,107.207 101.374,107.222 101.481,107.238L101.496,107.24L101.571,107.25L101.758,107.277L101.802,107.283L101.838,107.288L101.921,107.299L102.053,107.317L102.125,107.326L102.181,107.334L102.252,107.343L102.348,107.356L102.451,107.368L102.525,107.378L102.577,107.384L102.644,107.393L102.785,107.41L102.869,107.42L102.901,107.424L102.941,107.428L103.146,107.452L103.214,107.46L103.225,107.461C103.333,107.473 103.44,107.485 103.548,107.497L103.56,107.498L103.628,107.505L103.833,107.527L103.873,107.531L103.906,107.534L103.99,107.542L104.131,107.556L104.199,107.563L104.253,107.568L104.327,107.575L104.43,107.585L104.529,107.594L104.6,107.6L104.657,107.605L104.73,107.612L104.864,107.623L104.948,107.63L104.985,107.633L105.029,107.637L105.221,107.652L105.297,107.658L105.312,107.659C105.421,107.668 105.53,107.676 105.639,107.684L105.647,107.684L105.704,107.688L105.931,107.704L105.967,107.706L105.997,107.708L106.083,107.713L106.233,107.723L106.297,107.727L106.347,107.73L106.425,107.734L106.44,107.735L106.44,107.735C106.715,107.751 106.99,107.765 107.266,107.777L107.325,107.78L107.699,107.795L107.731,107.796L108.139,107.809L108.21,107.811L108.537,107.819L108.614,107.821L108.998,107.828L109.074,107.829L109.392,107.832L109.443,107.833L109.485,107.833L109.885,107.835L110.223,107.834L110.349,107.833L110.375,107.832L110.562,107.831L110.72,107.829L110.766,107.828L110.9,107.826L111.078,107.823L111.142,107.821L111.239,107.819L111.43,107.815L111.513,107.812L111.579,107.811L111.78,107.805L111.882,107.801L111.921,107.8L112.056,107.795L112.083,107.794L112.128,107.793L112.226,107.789L112.392,107.782L112.448,107.78L112.477,107.778L112.604,107.773L112.727,107.767L112.813,107.763L112.828,107.762L112.961,107.755L112.978,107.754L113.062,107.75L113.177,107.744L113.185,107.743L113.311,107.736L113.342,107.734L113.396,107.731L113.519,107.724L113.658,107.715L113.704,107.712L113.729,107.711L113.865,107.702L113.904,107.699L114.004,107.693L114.203,107.678L114.269,107.673L114.349,107.667L114.538,107.653L114.634,107.645L114.696,107.64L114.871,107.626L115.004,107.614L115.047,107.611L115.202,107.597L115.386,107.58L115.411,107.578L115.533,107.567L115.862,107.534L115.879,107.532L116.204,107.499L116.316,107.486L116.339,107.484L116.52,107.464L116.675,107.446L116.719,107.441L116.849,107.426L117.022,107.405L117.085,107.397L117.178,107.386L117.364,107.363L117.445,107.352L117.508,107.344L117.703,107.319L117.803,107.305L117.84,107.3L117.972,107.282L117.999,107.278L118.04,107.273L118.14,107.259L118.298,107.236L118.353,107.228L118.379,107.225L118.504,107.206L118.622,107.189L118.706,107.176L118.719,107.174L118.849,107.154L118.866,107.152L118.945,107.14L119.188,107.101L119.218,107.097L119.269,107.089L119.393,107.068L119.524,107.047L119.569,107.039L119.592,107.036L119.726,107.013L119.763,107.007L119.857,106.991L120.053,106.957L120.116,106.946L120.192,106.932L120.376,106.899L120.47,106.882L120.527,106.872L120.698,106.84L120.828,106.816L120.866,106.809L121.019,106.78L121.198,106.745L121.218,106.741L121.338,106.717L121.654,106.654L121.693,106.646L121.984,106.586L122.098,106.561L122.289,106.521L122.443,106.487L122.483,106.478L122.606,106.451L122.776,106.413L122.836,106.4L122.922,106.38L123.105,106.338L123.183,106.32L123.24,106.307L123.432,106.262L123.528,106.239L123.558,106.232L123.692,106.2L123.718,106.193L123.754,106.185L124.006,106.123L124.058,106.11L124.08,106.105L124.318,106.045L124.399,106.024L124.407,106.022L124.538,105.988L124.552,105.985L124.625,105.966L124.863,105.904L124.891,105.896L124.936,105.884L125.077,105.847L125.186,105.817L125.228,105.806L125.246,105.801L125.384,105.763L125.416,105.755L125.502,105.731L125.697,105.677L125.755,105.66L125.823,105.641L125.921,105.613C125.319,102.829 125,99.928 125,96.947C125,96.155 125.022,95.369 125.067,94.59L125.075,94.444L125.091,94.193L125.102,94.046L125.113,93.891L125.123,93.749L125.144,93.497L125.156,93.354L125.17,93.197L125.183,93.057L125.207,92.805L125.222,92.665L125.239,92.506L125.253,92.369L125.282,92.117L125.299,91.981L125.319,91.818L125.335,91.685L125.369,91.433L125.387,91.3L125.41,91.135L125.429,91.005L125.466,90.752L125.486,90.623L125.513,90.456L125.533,90.329L125.575,90.076L125.597,89.95L125.626,89.78L125.648,89.656L125.695,89.403L125.718,89.281L125.751,89.109L125.775,88.988L125.825,88.735L125.85,88.617L125.886,88.443L125.912,88.325L125.967,88.072L125.993,87.957L126.033,87.781L126.059,87.666L126.119,87.413L126.146,87.301L126.19,87.123L126.217,87.011L126.282,86.758L126.31,86.65L126.357,86.47L126.386,86.361L126.455,86.108L126.484,86.004L126.535,85.822L126.565,85.715L126.638,85.463L126.668,85.362L126.723,85.179L126.755,85.075L126.832,84.823L126.863,84.726L126.922,84.541L126.954,84.439L127.036,84.188L127.067,84.095L127.13,83.907L127.164,83.809L127.25,83.558L127.282,83.469L127.349,83.28L127.383,83.184L127.474,82.934L127.506,82.848L127.577,82.657L127.612,82.564L127.708,82.314L127.74,82.232L127.816,82.04L127.851,81.949L127.952,81.701L127.984,81.622L128.064,81.428L128.1,81.34L128.205,81.092L128.237,81.018L128.321,80.823L128.358,80.737L128.468,80.49L128.499,80.419L128.588,80.222L128.626,80.14L128.74,79.893L128.771,79.827L128.865,79.628L128.903,79.548L129.021,79.303L129.052,79.24L129.151,79.04L129.189,78.963L129.312,78.718L129.342,78.66L129.446,78.458L129.485,78.383L129.612,78.14L129.641,78.085L129.75,77.882L129.789,77.81L129.921,77.568L129.949,77.517L130.063,77.313L130.102,77.243L130.239,77.002L130.265,76.956L130.385,76.75L130.424,76.682L130.565,76.443L130.591,76.401L130.715,76.193L130.755,76.128L130.901,75.89L130.924,75.852L131.055,75.643L131.094,75.581L131.245,75.344L131.266,75.311L131.403,75.1L131.442,75.04L131.597,74.805L131.617,74.776L131.759,74.564L131.798,74.507L131.958,74.273L131.975,74.248L132.124,74.035L132.162,73.98L132.327,73.748L132.342,73.728L132.497,73.513L132.535,73.461L132.704,73.23L132.716,73.214L132.878,72.998L132.915,72.948L133.09,72.719L133.098,72.708L133.267,72.491L133.304,72.443L133.483,72.216L133.488,72.21L133.664,71.991L133.7,71.946L133.884,71.72L134.069,71.499L134.104,71.456L134.293,71.233L134.481,71.014L134.516,70.974L134.708,70.754L134.901,70.537L134.935,70.499L135.132,70.282L135.329,70.068L135.362,70.033L135.563,69.819L135.764,69.607L135.796,69.574L136.001,69.363L136.207,69.154L136.237,69.124L136.446,68.916L136.656,68.71L136.686,68.681L136.898,68.477L137.113,68.274L137.141,68.247L137.358,68.046L137.577,67.846L137.603,67.822L137.824,67.624L138.047,67.427L138.072,67.405L138.297,67.21L138.525,67.016L138.548,66.997L138.777,66.805L139.009,66.615L139.03,66.597L139.263,66.409L139.499,66.222L139.519,66.207L139.756,66.022L139.996,65.839L140.014,65.825L140.255,65.644L140.5,65.464L140.516,65.452L140.761,65.275L141.009,65.099L141.023,65.089L141.273,64.916L141.525,64.743L141.537,64.735L141.79,64.566L142.047,64.397L142.057,64.391L142.314,64.225L142.575,64.06L142.582,64.056L142.844,63.894L143.108,63.733L143.114,63.73L143.379,63.573L143.648,63.416L143.651,63.415L143.92,63.261L144.193,63.109C144.466,62.958 144.742,62.811 145.019,62.668L145.019,62.668C149.596,60.305 154.719,58.982 160.125,58.982C171.12,58.982 180.942,64.454 187.384,73.014C194.162,72.494 200.069,68.521 203.627,62.704C203.912,64.14 204.063,65.634 204.063,67.167C204.063,75.102 200.027,81.978 194.157,85.301C194.892,85.374 195.639,85.411 196.394,85.411C200.856,85.411 204.997,84.108 208.414,81.882C207.471,89.879 202.125,96.303 195.239,97.906Z" style="fill:white;stroke:black;stroke-width:3.43px;stroke-linecap:round;stroke-miterlimit:1.5;"/></g></g></svg>